HIERARCHY
ROOT Hips
{
	OFFSET 0.00000 0.00000 0.00000
	CHANNELS 6 Xposition Yposition Zposition Zrotation Yrotation Xrotation 
	JOINT LHipJoint
	{
		OFFSET 0 0 0
		CHANNELS 3 Zrotation Yrotation Xrotation
		JOINT LeftHip
		{
			OFFSET 1.58161 -1.81893 0.78828
			CHANNELS 3 Zrotation Yrotation Xrotation
			JOINT LeftKnee
			{
				OFFSET 2.53374 -6.96141 0.00000
				CHANNELS 3 Zrotation Yrotation Xrotation
				JOINT LeftAnkle
				{
					OFFSET 2.63509 -7.23986 0.00000
					CHANNELS 3 Zrotation Yrotation Xrotation
					JOINT LeftToe
					{
						OFFSET 0.14115 -0.38781 2.05350
						CHANNELS 3 Zrotation Yrotation Xrotation
						End Site
						{
							OFFSET 0.00000 -0.00000 1.05543
						}
					}
				}
			}
		}
	}
	JOINT RHipJoint
	{
		OFFSET 0 0 0
		CHANNELS 3 Zrotation Yrotation Xrotation
		JOINT RightHip
		{
			OFFSET -1.11138 -1.81893 0.78828
			CHANNELS 3 Zrotation Yrotation Xrotation
			JOINT RightKnee
			{
				OFFSET -2.58392 -7.09926 0.00000
				CHANNELS 3 Zrotation Yrotation Xrotation
				JOINT RightAnkle
				{
					OFFSET -2.66423 -7.31992 0.00000
					CHANNELS 3 Zrotation Yrotation Xrotation
					JOINT RightToe
					{
						OFFSET -0.18831 -0.51739 2.12114
						CHANNELS 3 Zrotation Yrotation Xrotation
						End Site
						{
							OFFSET -0.00000 -0.00000 1.09845
						}
					}
				}
			}
		}
	}
	JOINT lowerback
	{
		OFFSET 0 0 0
		CHANNELS 3 Zrotation Yrotation Xrotation
		JOINT Chest
		{
			OFFSET -0.01511 1.97958 -0.08829
			CHANNELS 3 Zrotation Yrotation Xrotation
			JOINT Chest2
			{
				OFFSET 0.08344 1.97334 -0.04330
				CHANNELS 3 Zrotation Yrotation Xrotation
				JOINT lowerneck
				{
					OFFSET 0 0 0
					CHANNELS 3 Zrotation Yrotation Xrotation
					JOINT Neck
					{
						OFFSET 0.00559 1.76246 0.31246
						CHANNELS 3 Zrotation Yrotation Xrotation
						JOINT Head
						{
							OFFSET -0.07011 1.80354 -0.30524
							CHANNELS 3 Zrotation Yrotation Xrotation
							End Site
							{
								OFFSET -0.02385 1.83547 -0.13906
							}
						}
					}
				}
				JOINT LeftCollar
				{
					OFFSET 0 0 0
					CHANNELS 3 Zrotation Yrotation Xrotation
					JOINT LeftShoulder
					{
						OFFSET 3.20667 1.30156 -0.60240
CHANNELS 3 Zrotation Xrotation Yrotation
						JOINT LeftElbow
						{
OFFSET 0 -4.956630 0.000000
CHANNELS 3 Zrotation Xrotation Yrotation
							JOINT LeftWrist
							{
OFFSET 0 -3.381770 0.000000
CHANNELS 3 Zrotation Xrotation Yrotation
								JOINT lhand
								{
									OFFSET 0 0 0
CHANNELS 3 Zrotation Xrotation Yrotation
									JOINT LFingers
									{
OFFSET 0 -0.662910 0.000000
CHANNELS 3 Zrotation Xrotation Yrotation
										End Site
										{
OFFSET 0 -0.534450 0.000000
										}
									}
								}
								JOINT LThumb
								{
OFFSET 0 0.000000 0.000000
CHANNELS 3 Zrotation Xrotation Yrotation
									End Site
									{
OFFSET 0 -0.542610 0.542610
									}
								}
							}
						}
					}
				}
				JOINT RightCollar
				{
					OFFSET 0 0 0
					CHANNELS 3 Zrotation Yrotation Xrotation
					JOINT RightShoulder
					{
						OFFSET -3.06877 1.34672 -0.60964
CHANNELS 3 Zrotation Xrotation Yrotation
						JOINT RightElbow
						{
OFFSET 0 -5.083650 0.000000
CHANNELS 3 Zrotation Xrotation Yrotation
							JOINT RightWrist
							{
OFFSET 0 -3.359840 0.000000
CHANNELS 3 Zrotation Xrotation Yrotation
								JOINT rhand
								{
									OFFSET 0 0 0
CHANNELS 3 Zrotation Xrotation Yrotation
									JOINT RFingers
									{
OFFSET 0 -0.820760 0.000000
CHANNELS 3 Zrotation Xrotation Yrotation
										End Site
										{
OFFSET 0 -0.661720 0.000000
										}
									}
								}
								JOINT RThumb
								{
OFFSET 0 0.000000 0.000000
CHANNELS 3 Zrotation Xrotation Yrotation
									End Site
									{
OFFSET 0 -0.671820 0.671820
									}
								}
							}
						}
					}
				}
			}
		}
	}
}
MOTION
Frames: 7
Frame Time: 0.008333333333333333
-5.975600 17.897000 0.320800 -94.844100 85.220200 -77.604300 0.000000 0.000000 0.000000 -4.344500 -0.424700 -29.959100 1.950500 8.762200 25.054300 0.259800 -3.522200 -9.060400 1.188500 -6.918100 -19.472900 0.000000 0.000000 0.000000 10.428300 8.941300 -26.342400 -1.408900 -7.507600 21.228200 -0.001000 -6.307600 -9.025500 -0.048400 -1.420500 3.906600 -1.122300 1.803800 -1.179000 3.796100 2.398100 3.424700 4.674800 1.127700 3.988700 1.756600 -1.698500 -14.636700 -3.391900 0.094200 39.021500 -1.633200 0.384100 16.468800 -0.000000 -0.000000 0.000000 -13.778100 -21.751500 -82.535900 12.561300 -20.641100 2.296300 30.375100 -14.171900 -64.512600 0.000000 0.000000 0.000000 -7.125000 0.000000 0.000000 170.400200 7.879100 -8.313800 -0.000000 -0.000000 0.000000 13.850900 -23.115200 32.291400 -10.918500 -18.163200 -1.750400 -11.701000 -33.803300 7.850400 0.000000 0.000000 0.000000 7.125000 0.000000 -0.000000 12.888200 37.703000 2.362300
-5.976955 17.896322 0.317035 -95.827717 85.207099 -78.555842 0.000000 0.000000 0.000000 -4.312953 -0.541779 -29.994186 1.952683 8.766793 25.068455 0.259649 -3.510906 -9.057840 1.178034 -6.888811 -19.386314 0.000000 0.000000 0.000000 10.451942 8.859232 -26.410841 -1.411987 -7.515506 21.251992 -0.001000 -6.315807 -9.037246 -0.046442 -1.390609 3.824306 -1.070875 1.775867 -1.216270 3.815299 2.358722 3.411976 4.665464 1.109404 4.001198 1.735518 -1.705050 -14.626611 -3.409820 0.100600 39.026996 -1.636061 0.381766 16.469628 0.000000 0.000000 0.000000 -13.760180 -21.740959 -82.432072 12.571464 -20.656158 2.299914 31.232301 -13.477330 -64.586612 0.000000 0.000000 0.000000 -7.125000 0.000000 0.000000 170.590463 8.112280 -8.100798 0.000000 0.000000 0.000000 13.867238 -23.016341 32.475640 -11.050487 -18.365510 -1.791886 -12.215697 -34.865973 7.817422 0.000000 0.000000 0.000000 7.125000 0.000000 0.000000 12.451430 37.704431 2.278801
-5.977855 17.895695 0.315800 -96.022775 85.192633 -78.737997 0.000000 0.000000 0.000000 -4.298199 -0.548281 -30.021078 1.953956 8.769463 25.076793 0.259246 -3.523842 -9.050424 1.164584 -6.850670 -19.273627 0.000000 0.000000 0.000000 10.470171 8.853697 -26.441899 -1.414518 -7.521995 21.271434 0.005981 -6.374446 -8.935328 -0.040691 -1.299460 3.573161 -1.054556 1.779751 -1.240590 3.828378 2.363100 3.406788 4.671050 1.111949 4.009347 1.745950 -1.727130 -14.624969 -3.460366 0.085855 39.034010 -1.662899 0.370934 16.472126 0.000000 0.000000 0.000000 -13.742767 -21.730570 -82.346960 12.582742 -20.672785 2.303882 31.865869 -12.924902 -64.715104 0.000000 0.000000 0.000000 -7.125000 0.000000 0.000000 170.703535 8.352845 -7.955732 0.000000 0.000000 0.000000 13.893491 -22.939082 32.476765 -11.161532 -18.535345 -1.826998 -12.401495 -35.660398 7.868262 0.000000 0.000000 0.000000 7.125000 0.000000 0.000000 12.305975 37.767574 2.231672
-5.978766 17.894938 0.315955 -95.717020 85.186788 -78.432611 0.000000 0.000000 0.000000 -4.303190 -0.496037 -30.039749 1.954966 8.771583 25.083428 0.258589 -3.536270 -9.038851 1.151358 -6.812941 -19.162241 0.000000 0.000000 0.000000 10.470127 8.907360 -26.444116 -1.416518 -7.527094 21.286707 -0.011058 -6.289496 -9.222321 -0.214066 -2.312168 6.411685 -1.057222 1.803213 -1.253099 3.828039 2.394439 3.408129 4.674092 1.127416 4.015034 1.777805 -1.750999 -14.627169 -3.520173 0.063423 39.032191 -1.698965 0.358435 16.470341 0.000000 0.000000 0.000000 -13.711083 -21.724318 -82.290916 12.596477 -20.693076 2.308722 32.272052 -12.536222 -64.879159 0.000000 0.000000 0.000000 -7.125000 0.000000 0.000000 170.745832 8.581310 -7.875857 0.000000 0.000000 0.000000 13.929995 -22.893903 32.338040 -11.239836 -18.654928 -1.851907 -12.366506 -36.159999 7.965969 0.000000 0.000000 0.000000 7.125000 0.000000 0.000000 12.354411 37.862698 2.211236
-5.980118 17.893894 0.316385 -95.199637 85.198969 -77.922795 0.000000 0.000000 0.000000 -4.330141 -0.436647 -30.050239 1.956330 8.774464 25.092300 0.257698 -3.524654 -9.024038 1.141461 -6.784590 -19.078675 0.000000 0.000000 0.000000 10.440020 9.001423 -26.426559 -1.418004 -7.530811 21.297929 -0.078532 -5.894734 -10.326633 -0.723612 -5.318880 14.830631 -1.063327 1.833977 -1.255520 3.807820 2.435901 3.414896 4.658346 1.147843 4.020339 1.820523 -1.763471 -14.628849 -3.566564 0.046459 39.011993 -1.729798 0.350846 16.458804 0.000000 0.000000 0.000000 -13.651497 -21.725925 -82.273296 12.614210 -20.719401 2.315016 32.454660 -12.326861 -65.059242 0.000000 0.000000 0.000000 -7.125000 0.000000 0.000000 170.725839 8.779239 -7.856457 0.000000 0.000000 0.000000 13.976257 -22.889825 32.106598 -11.275149 -18.708837 -1.863276 -12.220227 -36.347858 8.075207 0.000000 0.000000 0.000000 7.125000 0.000000 0.000000 12.498450 37.961785 2.207163
-5.981247 17.893518 0.315406 -95.266421 85.229161 -77.980469 0.000000 0.000000 0.000000 -4.352127 -0.497633 -30.052723 1.958288 8.778605 25.105175 0.257547 -3.483017 -9.020048 1.138977 -6.777513 -19.057744 0.000000 0.000000 0.000000 10.396200 9.015804 -26.436799 -1.418229 -7.531488 21.299812 -0.022590 -6.225492 -9.439616 -0.634165 2.529800 -7.027961 -1.065059 1.838946 -1.282549 3.789749 2.442376 3.421070 4.642008 1.150629 4.042174 1.822029 -1.755189 -14.632011 -3.570705 0.056699 38.985792 -1.729647 0.353782 16.446155 0.000000 0.000000 0.000000 -13.580421 -21.733981 -82.279470 12.653513 -20.777451 2.328945 32.767800 -12.066652 -65.171503 0.000000 0.000000 0.000000 -7.125000 0.000000 0.000000 170.760548 8.942849 -7.795696 0.000000 0.000000 0.000000 13.986346 -22.885007 32.100048 -11.310537 -18.762746 -1.874646 -12.299284 -36.602873 8.198084 0.000000 0.000000 0.000000 7.125000 0.000000 0.000000 12.456588 38.089707 2.159653
-5.982066 17.893141 0.313858 -95.659248 85.228922 -78.362582 0.000000 0.000000 0.000000 -4.341456 -0.560638 -30.067991 1.960608 8.783523 25.120482 0.257914 -3.476262 -9.026201 1.139597 -6.779337 -19.063258 0.000000 0.000000 0.000000 10.389694 8.996131 -26.451127 -1.418404 -7.531907 21.301021 -0.008050 -6.353172 -9.270360 -0.346297 3.480902 -9.651648 -1.051678 1.832892 -1.297107 3.801075 2.433635 3.420102 4.646526 1.146532 4.050242 1.802058 -1.741111 -14.641022 -3.567187 0.082413 38.978532 -1.719922 0.361635 16.445926 0.000000 0.000000 0.000000 -13.557217 -21.734689 -82.240929 12.679618 -20.816042 2.338217 32.936084 -11.911138 -65.206807 0.000000 0.000000 0.000000 -7.125000 0.000000 0.000000 170.788220 9.008543 -7.759466 0.000000 0.000000 0.000000 13.961191 -22.860832 32.136194 -11.353325 -18.827834 -1.888395 -12.199017 -36.855144 8.408992 0.000000 0.000000 0.000000 7.125000 0.000000 0.000000 12.583595 38.292825 2.117888
